<?xml version="1.0" standalone="no"?>
<!DOCTYPE svg PUBLIC "-//W3C//DTD SVG 20010904//EN"
 "http://www.w3.org/TR/2001/REC-SVG-20010904/DTD/svg10.dtd">
<svg version="1.0" xmlns="http://www.w3.org/2000/svg"
 width="190.000000pt" height="135.000000pt" viewBox="0 0 190.000000 135.000000"
 preserveAspectRatio="xMidYMid meet">

<g transform="translate(0.000000,135.000000) scale(0.100000,-0.100000)"
fill="#000000" stroke="none">
<path d="M802 1331 c-104 -26 -226 -89 -299 -156 -78 -70 -152 -181 -184 -275
-26 -78 -14 -70 -159 -103 l-65 -15 153 -1 152 -1 0 35 c0 19 3 36 8 36 4 1
26 3 50 4 l42 3 0 -179 0 -179 -50 0 -50 0 0 35 0 35 -162 0 c-90 0 -181 3
-202 7 -28 4 -37 3 -32 -5 4 -7 17 -12 29 -12 12 0 75 -10 140 -22 109 -21
120 -25 130 -48 40 -99 84 -181 127 -235 174 -219 473 -304 743 -210 99 34
170 80 253 162 69 68 121 154 172 283 9 24 20 27 138 49 126 22 216 47 129 36
-22 -2 -113 -5 -202 -5 l-163 0 0 -35 0 -35 -50 0 -50 0 0 180 0 180 34 0 c54
0 66 -8 66 -46 l0 -34 153 1 152 1 -65 15 c-145 33 -133 25 -159 103 -55 160
-180 300 -336 375 -151 73 -297 91 -443 56z m334 -29 c189 -60 353 -211 420
-387 29 -79 29 -77 3 -73 -14 2 -28 22 -48 69 -37 88 -76 143 -153 215 -115
107 -242 154 -415 154 -180 0 -315 -59 -440 -193 -54 -58 -114 -159 -137 -229
-6 -21 -46 -24 -46 -4 0 8 21 56 47 107 37 76 62 110 127 174 107 107 182 146
361 189 43 11 222 -3 281 -22z m-398 -464 l3 -108 209 0 209 0 3 108 3 107 53
3 52 3 0 -270 0 -271 -55 0 -55 0 0 108 0 107 -210 2 -210 1 0 -109 0 -109
-55 0 -55 0 0 271 0 270 53 -3 52 -3 3 -107z m638 59 c5 -5 6 -45 5 -239 l-1
-208 -50 0 -50 0 0 224 c0 205 1 225 18 229 15 5 72 0 78 -6z m-756 -223 l0
-225 -51 3 -51 3 -1 223 -2 222 53 0 52 0 0 -226z m-254 -178 c0 0 11 -26 23
-56 73 -173 235 -313 412 -355 82 -19 216 -19 298 0 178 42 357 199 416 363
17 46 47 73 59 53 8 -12 -41 -120 -79 -177 -112 -170 -266 -266 -468 -294
-264 -37 -539 112 -657 355 -21 44 -42 91 -45 103 -6 22 -5 23 17 17 12 -4 23
-8 24 -9z"/>
</g>
</svg>
